<svg width="32" height="32" viewBox="0 0 32 32" fill="none" xmlns="http://www.w3.org/2000/svg">
<path d="M28.3327 17.3333V11.3333C28.3327 9.56518 27.6303 7.86949 26.3801 6.61925C25.1298 5.369 23.4341 4.66663 21.666 4.66663H10.3327C8.56457 4.66663 6.86888 5.369 5.61864 6.61925C4.36839 7.86949 3.66602 9.56518 3.66602 11.3333V20.6666C3.66602 21.5421 3.83845 22.409 4.17349 23.2178C4.50852 24.0267 4.99958 24.7616 5.61864 25.3807C6.86888 26.6309 8.56457 27.3333 10.3327 27.3333H18.6793" stroke="black" stroke-width="2" stroke-linecap="round" stroke-linejoin="round"/>
<path d="M4.01172 22.6667L7.66505 18.4C8.14484 17.9235 8.77453 17.6274 9.44756 17.5618C10.1206 17.4962 10.7956 17.6651 11.3584 18.04C11.9212 18.4149 12.5962 18.5838 13.2692 18.5182C13.9422 18.4526 14.5719 18.1565 15.0517 17.68L18.1584 14.5733C19.051 13.6777 20.2329 13.1283 21.4931 13.0233C22.7533 12.9183 24.0098 13.2644 25.0384 14L28.3317 16.5467M10.6784 13.56C10.969 13.5583 11.2565 13.4993 11.5244 13.3864C11.7922 13.2736 12.0353 13.1091 12.2395 12.9023C12.4438 12.6955 12.6054 12.4506 12.715 12.1814C12.8246 11.9122 12.8801 11.624 12.8784 11.3333C12.8766 11.0427 12.8177 10.7552 12.7048 10.4874C12.592 10.2195 12.4275 9.97647 12.2207 9.77218C12.0139 9.56789 11.7689 9.40633 11.4997 9.29672C11.2305 9.18711 10.9424 9.13159 10.6517 9.13334C10.0647 9.13688 9.50314 9.37346 9.09056 9.79104C8.67798 10.2086 8.44818 10.773 8.45172 11.36C8.45526 11.947 8.69184 12.5086 9.10942 12.9212C9.527 13.3337 10.0914 13.5635 10.6784 13.56Z" stroke="black" stroke-width="2" stroke-linecap="round" stroke-linejoin="round"/>
<path d="M25.3253 20.6666V27.3333M22 24.0066H28.6667" stroke="black" stroke-width="2" stroke-miterlimit="10" stroke-linecap="round"/>
</svg>
