<svg width="32" height="32" viewBox="0 0 32 32" fill="none" xmlns="http://www.w3.org/2000/svg">
<g filter="url(#filter0_i_6224_249)">
<rect x="0.5" y="0.5" width="31" height="31" rx="15.5" stroke="white"/>
<path d="M11.3327 18.6667L10.666 21.3334L13.3327 20.6667L21.0567 12.9427C21.3066 12.6927 21.4471 12.3536 21.4471 12C21.4471 11.6465 21.3066 11.3074 21.0567 11.0574L20.942 10.9427C20.692 10.6927 20.3529 10.5523 19.9993 10.5523C19.6458 10.5523 19.3067 10.6927 19.0567 10.9427L11.3327 18.6667Z" stroke="white" stroke-width="2" stroke-linecap="round" stroke-linejoin="round"/>
<path d="M11.3327 18.6667L10.666 21.3333L13.3327 20.6667L19.9993 14L17.9993 12L11.3327 18.6667Z" fill="white"/>
<path d="M17.9993 12L19.9993 14M16.666 21.3333H21.9993" stroke="white" stroke-width="2" stroke-linecap="round" stroke-linejoin="round"/>
</g>
<defs>
<filter id="filter0_i_6224_249" x="0" y="-2" width="32" height="34" filterUnits="userSpaceOnUse" color-interpolation-filters="sRGB">
<feFlood flood-opacity="0" result="BackgroundImageFix"/>
<feBlend mode="normal" in="SourceGraphic" in2="BackgroundImageFix" result="shape"/>
<feColorMatrix in="SourceAlpha" type="matrix" values="0 0 0 0 0 0 0 0 0 0 0 0 0 0 0 0 0 0 127 0" result="hardAlpha"/>
<feOffset dy="-2"/>
<feGaussianBlur stdDeviation="1.5"/>
<feComposite in2="hardAlpha" operator="arithmetic" k2="-1" k3="1"/>
<feColorMatrix type="matrix" values="0 0 0 0 1 0 0 0 0 1 0 0 0 0 1 0 0 0 0.43 0"/>
<feBlend mode="normal" in2="shape" result="effect1_innerShadow_6224_249"/>
</filter>
</defs>
</svg>
