<svg width="48" height="48" viewBox="0 0 48 48" fill="none" xmlns="http://www.w3.org/2000/svg">
<rect x="0.5" y="0.5" width="47" height="47" rx="23.5" stroke="white"/>
<path d="M17.708 31H20.5C20.642 31 20.7607 31.048 20.856 31.144C20.9513 31.24 20.9993 31.359 21 31.501C21.0007 31.643 20.9527 31.7617 20.856 31.857C20.7593 31.9523 20.6407 32 20.5 32H16.808C16.5793 32 16.3873 31.9227 16.232 31.768C16.0767 31.6133 15.9993 31.4213 16 31.192V27.5C16 27.358 16.048 27.2393 16.144 27.144C16.24 27.0487 16.359 27.0007 16.501 27C16.643 26.9993 16.7617 27.0473 16.857 27.144C16.9523 27.2407 17 27.3593 17 27.5V30.292L20.246 27.046C20.3393 26.9527 20.454 26.9027 20.59 26.896C20.726 26.8893 20.8473 26.9393 20.954 27.046C21.0607 27.1527 21.114 27.2707 21.114 27.4C21.114 27.5293 21.0607 27.6473 20.954 27.754L17.708 31ZM30.292 31L27.046 27.754C26.9527 27.6607 26.9027 27.546 26.896 27.41C26.8893 27.274 26.9393 27.1527 27.046 27.046C27.1527 26.9393 27.2707 26.886 27.4 26.886C27.5293 26.886 27.6473 26.9393 27.754 27.046L31 30.292V27.5C31 27.358 31.048 27.2393 31.144 27.144C31.24 27.0487 31.359 27.0007 31.501 27C31.643 26.9993 31.7617 27.0473 31.857 27.144C31.9523 27.2407 32 27.3593 32 27.5V31.192C32 31.4213 31.9227 31.6133 31.768 31.768C31.6133 31.9227 31.4213 32 31.192 32H27.5C27.358 32 27.2393 31.952 27.144 31.856C27.0487 31.76 27.0007 31.641 27 31.499C26.9993 31.357 27.0473 31.2383 27.144 31.143C27.2407 31.0477 27.3593 31 27.5 31H30.292ZM17 17.708V20.5C17 20.642 16.952 20.7607 16.856 20.856C16.76 20.9513 16.641 20.9993 16.499 21C16.357 21.0007 16.2383 20.9527 16.143 20.856C16.0477 20.7593 16 20.6407 16 20.5V16.808C16 16.5793 16.0773 16.3873 16.232 16.232C16.3867 16.0767 16.5787 15.9993 16.808 16H20.5C20.642 16 20.7607 16.048 20.856 16.144C20.9513 16.24 20.9993 16.359 21 16.501C21.0007 16.643 20.9527 16.7617 20.856 16.857C20.7593 16.9523 20.6407 17 20.5 17H17.708L20.954 20.246C21.0473 20.3393 21.0973 20.454 21.104 20.59C21.1107 20.726 21.0607 20.8473 20.954 20.954C20.8473 21.0607 20.7293 21.114 20.6 21.114C20.4707 21.114 20.3527 21.0607 20.246 20.954L17 17.708ZM31 17.708L27.754 20.954C27.6607 21.0473 27.546 21.0973 27.41 21.104C27.274 21.1107 27.1527 21.0607 27.046 20.954C26.9393 20.8473 26.886 20.7293 26.886 20.6C26.886 20.4707 26.9393 20.3527 27.046 20.246L30.292 17H27.5C27.358 17 27.2393 16.952 27.144 16.856C27.0487 16.76 27.0007 16.641 27 16.499C26.9993 16.357 27.0473 16.2383 27.144 16.143C27.2407 16.0477 27.3593 16 27.5 16H31.192C31.4213 16 31.6133 16.0773 31.768 16.232C31.9227 16.3867 32 16.5787 32 16.808V20.5C32 20.642 31.952 20.7607 31.856 20.856C31.76 20.9513 31.641 20.9993 31.499 21C31.357 21.0007 31.2383 20.9527 31.143 20.856C31.0477 20.7593 31 20.6407 31 20.5V17.708Z" fill="white"/>
</svg>
