<svg width="121" height="121" viewBox="0 0 121 121" fill="none" xmlns="http://www.w3.org/2000/svg">
<path d="M37.1812 24.4927C37.4259 23.3566 38.5841 22.6676 39.6992 22.9947L50.266 26.0939C50.9692 26.3002 51.7289 26.1053 52.246 25.5861L60.0166 17.7836C60.8367 16.9601 62.1835 17.0066 62.9449 17.8847L70.1586 26.2048C70.6387 26.7585 71.3831 27.0053 72.0989 26.848L82.8543 24.4852C83.9894 24.2359 85.0973 25.0032 85.263 26.1534L86.8334 37.0528C86.9379 37.7781 87.4307 38.3882 88.1179 38.6429L98.4434 42.47C99.5331 42.8739 100.05 44.1183 99.5678 45.1756L94.9963 55.1938C94.692 55.8605 94.7768 56.6401 95.2172 57.2259L101.834 66.0278C102.533 66.9568 102.295 68.2833 101.318 68.9119L92.0555 74.8681C91.4392 75.2645 91.0889 75.9662 91.1427 76.6971L91.9508 87.6793C92.0361 88.8383 91.1189 89.8257 89.9568 89.8261L78.9449 89.8294C78.2121 89.8296 77.5381 90.2306 77.1882 90.8745L71.9305 100.55C71.3757 101.571 70.0703 101.906 69.0924 101.278L59.8269 95.3274C59.2102 94.9314 58.4264 94.9043 57.784 95.2568L48.1299 100.554C47.1111 101.113 45.8319 100.689 45.3488 99.6321L40.7713 89.6167C40.4666 88.9502 39.8219 88.5036 39.0908 88.4528L28.1054 87.6898C26.9461 87.6092 26.0992 86.5609 26.2643 85.4105L27.8282 74.5102C27.9322 73.7849 27.6313 73.0606 27.0437 72.6227L18.2147 66.0416C17.2829 65.347 17.1373 64.0073 17.8981 63.1288L25.1069 54.8043C25.5866 54.2504 25.7249 53.4784 25.4674 52.7923L21.598 42.4826C21.1897 41.3946 21.7915 40.1888 22.9065 39.861L33.4714 36.7554C34.1744 36.5488 34.7082 35.9741 34.8625 35.2578L37.1812 24.4927Z" fill="white"/>
<path d="M48.4251 56.2225C48.6296 56.5662 48.7319 56.9336 48.7318 57.3246C48.7276 57.7088 48.5966 58.0753 48.3387 58.4242L48.351 58.4448C48.8575 58.3575 49.3074 58.4018 49.7005 58.5775C50.0964 58.7422 50.4191 59.0343 50.6686 59.4537C50.8976 59.8387 51.008 60.2432 50.9995 60.6671C50.9979 61.0869 50.8647 61.4966 50.5998 61.8963C50.3376 62.2849 49.9522 62.6306 49.4434 62.9333L46.8755 64.461L42.5807 57.2419L45.1796 55.6958C45.6471 55.4177 46.0936 55.2684 46.519 55.2481C46.9471 55.2167 47.3242 55.295 47.65 55.4828C47.9786 55.6596 48.237 55.9062 48.4251 56.2225ZM44.5963 57.5787L45.67 59.3835L46.7322 58.7516C47.0347 58.5716 47.2283 58.3494 47.313 58.0849C47.4046 57.8163 47.3624 57.5342 47.1865 57.2386C47.0147 56.9498 46.7842 56.7891 46.4948 56.7565C46.2123 56.7198 45.9198 56.7914 45.6173 56.9713L44.5963 57.5787ZM46.3203 60.4767L47.5474 62.5393L48.6715 61.8705C49.029 61.6578 49.2543 61.4028 49.3473 61.1054C49.4473 60.804 49.4031 60.4951 49.215 60.1788C49.0187 59.8488 48.7518 59.6585 48.4145 59.6078C48.0841 59.5531 47.7366 59.6341 47.3723 59.8509L46.3203 60.4767ZM48.5908 53.6664L53.8917 50.5128L54.5789 51.6679L50.6187 54.0238L51.6985 55.8389L54.2149 54.3419L54.8959 55.4866L52.3795 56.9837L53.5391 58.9328L57.4993 56.5768L58.1865 57.7319L52.8856 60.8855L48.5908 53.6664ZM59.7084 49.3982C59.3562 49.2912 59.0009 49.2652 58.6426 49.3201C58.2912 49.3709 57.978 49.4781 57.703 49.6417C57.4005 49.8217 57.1925 50.0432 57.079 50.3062C56.9724 50.5651 56.9886 50.8114 57.1277 51.0452C57.234 51.2239 57.3831 51.3493 57.5749 51.4214C57.7626 51.4866 58.0349 51.5061 58.3917 51.48L59.7236 51.3718C60.451 51.3114 61.0353 51.3548 61.4766 51.5019C61.9206 51.638 62.2858 51.9467 62.5721 52.428C62.7889 52.7924 62.8937 53.1954 62.8865 53.6372C62.8863 54.0749 62.7529 54.5079 62.4865 54.9363C62.227 55.3607 61.8325 55.7303 61.3031 56.0453C60.265 56.6629 59.2017 56.8394 58.1133 56.5746L58.2894 55.1573C58.6993 55.2672 59.0984 55.3044 59.4868 55.2688C59.878 55.2222 60.2351 55.1028 60.5583 54.9106C60.9158 54.6979 61.1486 54.4477 61.2567 54.16C61.3676 53.8613 61.3494 53.5882 61.2021 53.3407C61.1081 53.1826 60.9925 53.0744 60.8556 53.0163C60.7214 52.9472 60.561 52.9123 60.3744 52.9116C60.1947 52.9068 59.923 52.9195 59.5593 52.9497L58.3879 53.0462C57.7607 53.1028 57.2382 53.046 56.8203 52.8756C56.4053 52.6944 56.0669 52.3837 55.8051 51.9437C55.5638 51.538 55.4597 51.1206 55.4929 50.6913C55.522 50.2551 55.6662 49.8481 55.9255 49.4704C56.1918 49.0886 56.5449 48.7669 56.9849 48.5051C57.4455 48.231 57.9223 48.0545 58.4151 47.9754C58.9108 47.8853 59.4046 47.894 59.8968 48.0015L59.7084 49.3982ZM60.4665 48.1652L59.7794 47.0102L65.4515 43.6357L66.1387 44.7908L63.9729 46.0792L67.5805 52.1432L66.2398 52.9408L62.6323 46.8768L60.4665 48.1652ZM42.7586 79.7655L44.2679 82.3025L42.9272 83.1L38.6325 75.881L41.1385 74.3901C41.6679 74.0751 42.1796 73.9103 42.6736 73.8957C43.1675 73.8811 43.6116 73.9939 44.0059 74.2341C44.4001 74.4743 44.7281 74.8144 44.9899 75.2545C45.2517 75.6945 45.3927 76.1505 45.4128 76.6226C45.4289 77.0877 45.3113 77.5394 45.06 77.9774C44.8114 78.4046 44.4259 78.7736 43.9033 79.0844L42.7586 79.7655ZM40.6542 76.2281L42.0837 78.631L43.0737 78.042C43.4519 77.8171 43.6965 77.5319 43.8075 77.1866C43.9255 76.8372 43.8679 76.4665 43.6347 76.0746C43.4016 75.6827 43.1054 75.4587 42.7461 75.4025C42.3897 75.3353 42.0224 75.4142 41.6442 75.6391L40.6542 76.2281ZM52.8702 77.1848L49.4732 75.324L48.4213 75.9498L50.1269 78.8168L48.7863 79.6144L44.4915 72.3953L47.2966 70.7265C47.7917 70.432 48.2766 70.2692 48.7514 70.238C49.2331 70.2028 49.6684 70.2929 50.0572 70.5084C50.4461 70.7239 50.7632 71.0379 51.0086 71.4504C51.2581 71.8698 51.3764 72.3347 51.3635 72.845C51.3534 73.3444 51.1382 73.8354 50.718 74.3182L54.3965 76.2768L52.8702 77.1848ZM49.6451 72.3035C49.4487 71.9735 49.1854 71.7811 48.8549 71.7264C48.5245 71.6716 48.1667 71.7588 47.7817 71.9878L46.5132 72.7425L47.7648 74.8463L49.0849 74.061C49.463 73.836 49.7 73.5694 49.7958 73.261C49.8917 72.9527 49.8414 72.6335 49.6451 72.3035ZM52.4983 72.519C52.0771 71.8108 51.8651 71.0712 51.8625 70.3001C51.8599 69.529 52.0499 68.8156 52.4324 68.1599C52.8176 67.4932 53.3575 66.9532 54.0519 66.5401C54.7394 66.1311 55.4646 65.9184 56.2275 65.9021C56.9932 65.8748 57.7142 66.0462 58.3906 66.4164C59.067 66.7867 59.6158 67.3259 60.0371 68.034C60.4584 68.7422 60.6704 69.4818 60.673 70.2529C60.6756 71.0239 60.4842 71.7428 60.0989 72.4096C59.7164 73.0653 59.1814 73.5977 58.4939 74.0067C57.7995 74.4198 57.0694 74.6401 56.3038 74.6674C55.5409 74.6837 54.8212 74.5068 54.1449 74.1365C53.4685 73.7663 52.9196 73.2271 52.4983 72.519ZM58.6449 68.8623C58.3586 68.381 58.0032 68.0106 57.5789 67.7511C57.1504 67.4847 56.6886 67.3499 56.1933 67.3467C55.7049 67.3393 55.2304 67.4727 54.7697 67.7467C54.3091 68.0208 53.962 68.3762 53.7285 68.813C53.495 69.2498 53.3931 69.72 53.4228 70.2236C53.4524 70.7273 53.6084 71.2163 53.8906 71.6907C54.1728 72.1651 54.5282 72.5355 54.9566 72.8019C55.385 73.0683 55.8469 73.2031 56.3422 73.2063C56.8374 73.2096 57.3154 73.0742 57.7761 72.8001C58.2367 72.5261 58.5803 72.1727 58.807 71.74C59.0405 71.3032 59.1444 70.8364 59.1189 70.3397C59.0892 69.836 58.9312 69.3436 58.6449 68.8623ZM67.1926 63.7771C67.6179 64.4922 67.8444 65.2092 67.8719 65.9282C67.8994 66.6473 67.7212 67.3257 67.3374 67.9636C66.9536 68.6016 66.3732 69.1516 65.5963 69.6138L63.1934 71.0434L58.8987 63.8243L61.3016 62.3947C62.0785 61.9325 62.8388 61.685 63.5826 61.6521C64.3263 61.6192 65.0076 61.7864 65.6263 62.1537C66.2451 62.521 66.7672 63.0621 67.1926 63.7771ZM65.8209 64.5931C65.3424 63.7887 64.7549 63.3098 64.0585 63.1562C63.369 62.9986 62.6529 63.1407 61.9104 63.5824L60.9204 64.1714L63.8531 69.101L64.8431 68.512C65.5856 68.0703 66.0522 67.5088 66.2427 66.8276C66.4401 66.1424 66.2995 65.3976 65.8209 64.5931ZM72.448 64.1134C72.9224 63.8312 73.2069 63.5037 73.3016 63.1308C73.4032 62.7539 73.3476 62.3867 73.1349 62.0292L70.2022 57.0996L71.512 56.3204L74.4999 61.3428C74.7617 61.7828 74.8903 62.2416 74.8858 62.719C74.8881 63.1923 74.7444 63.6549 74.4546 64.1065C74.1607 64.5513 73.7215 64.9476 73.1371 65.2952C72.539 65.6511 71.9743 65.852 71.4432 65.8981C70.9148 65.9331 70.4432 65.8367 70.0284 65.6088C69.6135 65.3808 69.2752 65.0468 69.0134 64.6068L66.0255 59.5844L67.3662 58.7868L70.2989 63.7164C70.5116 64.0739 70.8043 64.3 71.1771 64.3947C71.55 64.4894 71.9736 64.3956 72.448 64.1134ZM76.0099 58.5315C76.2921 59.0059 76.6475 59.3763 77.0759 59.6427C77.5043 59.9091 77.9628 60.046 78.4512 60.0533C78.9396 60.0606 79.4141 59.9273 79.8747 59.6532C80.3698 59.3587 80.7169 58.98 80.9162 58.517C81.1224 58.0499 81.1648 57.55 81.0433 57.0172L82.518 56.1398C82.7036 56.7648 82.7432 57.3789 82.6367 57.9822C82.537 58.5814 82.3099 59.1307 81.9555 59.6302C81.5969 60.1227 81.146 60.5306 80.6029 60.8537C79.9016 61.2709 79.1681 61.4932 78.4025 61.5205C77.6396 61.5368 76.9254 61.3613 76.26 60.9939C75.5905 60.6195 75.043 60.0749 74.6177 59.3598C74.1923 58.6448 73.9769 57.9072 73.9715 57.1471C73.962 56.3801 74.1485 55.6688 74.531 55.013C74.9163 54.3463 75.4596 53.8043 76.1609 53.3871C77.0134 52.8799 77.895 52.6719 78.8057 52.7632C79.7123 52.8475 80.5161 53.2443 81.2173 53.9535L79.7426 54.8308C79.3323 54.4698 78.8728 54.2685 78.3639 54.2268C77.8619 54.181 77.3634 54.3054 76.8684 54.5999C76.4078 54.8739 76.0641 55.2273 75.8375 55.66C75.6109 56.0927 75.5124 56.5609 75.5421 57.0645C75.5717 57.5681 75.7277 58.0572 76.0099 58.5315ZM80.4303 52.5786L79.7431 51.4236L85.4152 48.0491L86.1024 49.2042L83.9367 50.4926L87.5443 56.5566L86.2036 57.3542L82.596 51.2902L80.4303 52.5786Z" fill="#111111"/>
</svg>
